<?xml version="1.0" encoding="UTF-8" standalone="no"?>
<!-- Created with Inkscape (http://www.inkscape.org/) -->

<svg
   xmlns:dc="http://purl.org/dc/elements/1.1/"
   xmlns:cc="http://creativecommons.org/ns#"
   xmlns:rdf="http://www.w3.org/1999/02/22-rdf-syntax-ns#"
   xmlns:svg="http://www.w3.org/2000/svg"
   xmlns="http://www.w3.org/2000/svg"
   xmlns:sodipodi="http://sodipodi.sourceforge.net/DTD/sodipodi-0.dtd"
   xmlns:inkscape="http://www.inkscape.org/namespaces/inkscape"
   width="16.878895"
   height="13.821609"
   viewBox="0 0 16.878895 13.821609"
   id="svg2"
   version="1.1"
   inkscape:version="0.91 r13725"
   sodipodi:docname="rotate-clockwise.svg">
  <defs
     id="defs4" />
  <sodipodi:namedview
     id="base"
     pagecolor="#ffffff"
     bordercolor="#666666"
     borderopacity="1.0"
     inkscape:pageopacity="0.0"
     inkscape:pageshadow="2"
     inkscape:zoom="22.4"
     inkscape:cx="14.565451"
     inkscape:cy="0.19195684"
     inkscape:document-units="px"
     inkscape:current-layer="layer1"
     showgrid="false"
     units="px"
     fit-margin-top="0"
     fit-margin-left="0"
     fit-margin-right="0"
     fit-margin-bottom="0"
     inkscape:window-width="1920"
     inkscape:window-height="1058"
     inkscape:window-x="-8"
     inkscape:window-y="-8"
     inkscape:window-maximized="1">
    <inkscape:grid
       type="xygrid"
       id="grid4198"
       originx="-276.53623"
       originy="-731.58242" />
  </sodipodi:namedview>
  <metadata
     id="metadata7">
    <rdf:RDF>
      <cc:Work
         rdf:about="">
        <dc:format>image/svg+xml</dc:format>
        <dc:type
           rdf:resource="http://purl.org/dc/dcmitype/StillImage" />
        <dc:title></dc:title>
      </cc:Work>
    </rdf:RDF>
  </metadata>
  <g
     inkscape:label="Layer 1"
     inkscape:groupmode="layer"
     id="layer1"
     transform="translate(-276.53623,-306.95818)">
    <path
       style="opacity:0.93599997;fill:#000000;fill-opacity:1;stroke:none;stroke-width:20.14900017;stroke-miterlimit:4;stroke-dasharray:none;stroke-opacity:1"
       d="m 287.57501,307.90987 a 7.4112044,7.4112044 0 0 1 3.76948,6.10392 l 2.07064,0.0239 -1.73049,2.91859 -1.73054,2.91867 -1.66228,-2.95798 -1.66242,-2.95794 2.3735,0.0275 a 5.0819806,5.0819806 0 0 0 -4.99652,-4.69884 5.0819806,5.0819806 0 0 0 -5.14054,5.02269 5.0819806,5.0819806 0 0 0 2.43333,4.38775 l -1.06292,2.08166 a 7.4112044,7.4112044 0 0 1 -3.69957,-6.49632 7.4112044,7.4112044 0 0 1 7.49673,-7.32479 7.4112044,7.4112044 0 0 1 3.5416,0.95112 z"
       id="path4177"
       inkscape:connector-curvature="0" />
  </g>
</svg>
